<svg version="1.1" id="Layer_1" xmlns="http://www.w3.org/2000/svg" xmlns:xlink="http://www.w3.org/1999/xlink" x="0px" y="0px"
	 width="100%" viewBox="305 35 430 430" enable-background="new 305 35 430 430" xml:space="preserve">
<path fill="#000000" opacity="1.000000" stroke="none" 
	d="
M636.773804,286.544922 
	C637.773499,295.127167 636.901611,303.012451 633.490540,310.602417 
	C633.181213,302.237946 634.556641,293.898407 632.588989,285.612000 
	C630.665710,277.512421 628.330078,269.621338 624.028381,262.419556 
	C625.526855,271.895355 627.953857,281.198425 628.731995,290.741699 
	C630.442261,311.717712 623.762085,330.049805 610.629272,346.225189 
	C610.458069,346.436096 610.026733,346.435822 608.452393,346.935150 
	C610.757874,340.108398 614.702271,334.748718 615.732910,328.114197 
	C610.555420,335.309814 606.460815,343.268860 600.589355,349.938477 
	C594.393311,356.976807 587.506409,363.199280 579.703003,368.432190 
	C572.116882,373.519409 564.194885,377.830902 555.254578,380.133575 
	C557.539062,375.870636 562.430237,375.019867 565.523438,371.776855 
	C550.599060,379.161102 534.890137,383.614471 518.365356,385.135681 
	C516.753540,385.284027 515.048584,385.664581 513.444153,384.627014 
	C513.580383,382.320007 515.458862,382.917175 516.731201,382.689117 
	C539.080811,378.683014 559.659790,370.747406 577.085144,355.712677 
	C592.305786,342.580139 601.677368,326.342712 602.234131,305.983185 
	C602.811401,284.875092 594.045837,268.316895 576.221313,256.719666 
	C565.139099,249.509125 552.707153,244.947510 541.101196,238.763016 
	C535.332214,235.688904 530.076599,232.021454 525.264648,227.547501 
	C504.926117,208.637650 513.222107,174.452179 536.048645,164.587921 
	C561.740295,153.485535 586.309570,156.147812 608.550598,173.216553 
	C633.717041,192.530426 644.721619,219.368317 646.983337,250.259811 
	C647.421387,256.242676 646.932190,262.334839 644.193481,268.305328 
	C642.570374,248.515747 639.263184,229.354675 627.976196,211.802185 
	C627.976196,213.262253 627.976196,214.175858 627.976196,215.262787 
	C627.170349,214.895187 626.503601,214.591064 625.652222,214.202682 
	C625.342712,216.969238 627.836609,219.079788 627.021301,223.006592 
	C620.198914,213.311905 614.969910,203.347336 604.243164,196.690887 
	C607.205139,200.915146 609.532104,204.233887 611.859131,207.552643 
	C607.059753,205.396667 603.711060,201.748978 599.621948,199.029343 
	C589.339050,192.190369 578.696533,186.673019 565.821716,187.236343 
	C557.604004,187.595917 551.330200,191.672394 549.621216,198.148117 
	C548.014221,204.237015 550.917542,210.512405 558.054626,214.703125 
	C568.016052,220.552277 579.234497,223.528046 589.851990,227.886246 
	C610.319092,236.287430 626.022583,249.522202 633.649597,270.970673 
	C635.390625,275.866486 636.196289,280.950531 636.773804,286.544922 
z"/>
<path fill="#000000" opacity="1.000000" stroke="none" 
	d="
M452.837891,234.158112 
	C462.327148,243.904572 473.842834,249.914124 485.555786,255.618713 
	C494.265747,259.860748 502.667786,264.569122 510.104187,270.884705 
	C533.204895,290.503693 527.842041,326.712616 499.793304,338.140930 
	C472.141998,349.407257 446.707367,343.683075 424.990875,324.481079 
	C398.920624,301.429474 389.594177,271.328156 392.819946,237.055618 
	C392.967407,235.488861 392.915802,233.631439 396.323608,232.775330 
	C395.185089,254.955002 399.987030,275.388000 412.915710,293.498840 
	C413.586395,292.213196 411.665710,290.915802 412.937531,289.439911 
	C414.517731,291.601166 416.058502,293.708466 417.599274,295.815796 
	C414.788422,289.342926 411.088165,283.266052 410.423218,275.937897 
	C417.525177,286.995911 423.593933,298.749725 436.010437,306.475525 
	C433.960938,303.838654 432.256989,302.024384 431.009583,299.937286 
	C429.706940,297.757721 427.898407,295.699036 427.752014,292.807495 
	C430.173798,292.709106 430.569122,294.676270 431.658813,295.760345 
	C443.161438,307.203857 456.413544,314.962677 473.179657,314.613525 
	C483.577454,314.397003 490.495148,307.417877 489.645905,298.587677 
	C489.127075,293.192963 485.973450,289.417419 481.686340,286.480255 
	C473.880249,281.132233 464.805481,278.646881 456.098755,275.374084 
	C445.256287,271.298401 434.973236,266.301270 426.193695,258.599030 
	C406.090179,240.962433 399.414673,218.777206 404.096100,192.830032 
	C404.331177,191.527191 404.184998,189.764404 405.954224,188.850174 
	C407.526123,189.718262 406.733978,191.040390 406.624847,192.254028 
	C405.540344,204.315887 406.048279,216.224228 410.430359,227.685852 
	C411.201111,229.701889 411.703644,232.415497 415.308960,231.685074 
	C405.568634,202.590942 410.781677,176.385651 430.143036,152.986633 
	C427.445709,160.919769 423.499054,168.521652 422.587677,177.228790 
	C429.730835,159.369675 441.483795,145.260025 456.967651,134.183167 
	C463.030396,129.845963 469.430847,126.076477 476.325165,123.254860 
	C476.596863,123.607903 476.868530,123.960945 477.140198,124.313980 
	C473.123962,127.413795 469.107758,130.513611 465.091522,133.613434 
	C483.905090,123.777863 503.279175,116.459213 524.704590,116.388954 
	C524.825256,116.825455 524.945862,117.261948 525.066528,117.698448 
	C521.333069,118.548203 517.599060,119.395187 513.866333,120.248161 
	C487.781372,126.208931 464.705994,137.294983 448.956116,159.941101 
	C433.403992,182.302872 432.215973,213.372437 452.837891,234.158112 
z"/>
<path fill="#000000" opacity="1.000000" stroke="none" 
	d="
M417.908813,322.087158 
	C435.506927,340.193481 456.250793,351.478271 481.287170,353.262939 
	C495.405609,354.269348 508.947784,350.867371 521.468384,343.911041 
	C514.927673,344.271698 508.859344,348.121063 501.941132,347.044006 
	C502.378418,344.354523 504.231659,344.887329 505.543427,344.542419 
	C522.747803,340.018860 536.426697,330.732727 545.310974,315.027374 
	C557.173645,294.056824 550.548767,270.733398 533.140747,255.101944 
	C530.291504,252.543472 526.685425,250.670837 525.207214,246.669785 
	C540.439087,256.478027 558.843933,261.408112 570.585022,276.414642 
	C587.576111,298.131317 586.115845,326.694855 567.920776,349.034424 
	C545.040588,377.126282 503.961121,387.112061 469.892700,375.527435 
	C459.871765,372.119934 450.607239,367.336060 441.655396,361.826385 
	C440.579895,361.164459 439.155792,360.788086 438.676636,358.504791 
	C446.370026,360.227325 452.811310,364.288849 460.036804,366.306458 
	C453.635895,363.124756 447.617737,359.352661 441.664368,355.467133 
	C434.528961,350.810059 426.410431,346.433716 421.950165,339.566010 
	C413.986511,327.303894 403.918243,316.349396 398.417267,302.419434 
	C394.847229,293.379150 392.353027,284.111328 390.008148,274.752106 
	C389.737183,273.670715 389.355560,272.471222 391.203705,270.853485 
	C396.503937,289.932373 404.975647,307.022064 417.908813,322.087158 
z"/>
<path fill="#000000" opacity="1.000000" stroke="none" 
	d="
M594.698486,144.217285 
	C625.956238,164.908188 642.143433,194.431229 648.208862,230.134781 
	C645.946045,229.342789 645.960693,227.436996 645.564758,225.727173 
	C636.545410,186.776703 603.320801,155.028275 563.857544,148.708420 
	C547.225708,146.044922 531.028137,148.496094 516.503540,158.062881 
	C523.015564,155.851822 529.593445,154.002045 537.012207,153.759018 
	C536.146912,156.822800 533.742798,156.501617 532.139893,157.015121 
	C519.513245,161.060364 508.157715,167.189301 499.657196,177.573242 
	C482.745758,198.231689 485.474396,226.259949 505.849030,244.864548 
	C509.623718,248.311310 514.245911,250.798752 517.539185,254.877701 
	C516.159668,256.375122 515.233093,255.176422 514.433838,254.639618 
	C506.394348,249.240219 497.808258,244.808380 489.323639,240.180634 
	C474.186523,231.924454 463.102112,219.917389 458.779114,203.044876 
	C452.939575,180.253448 461.252655,161.313339 477.410828,145.638870 
	C496.669678,126.956535 520.098328,119.555290 546.836182,121.449623 
	C566.584778,122.848778 584.024353,129.790543 599.845703,141.323425 
	C601.210449,142.318268 603.123413,142.992661 603.258728,146.099747 
	C592.018066,139.318054 580.585815,134.289871 568.294495,131.391663 
	C577.596375,134.374786 586.117249,138.945709 594.698486,144.217285 
z"/>
</svg>